<?xml version="1.0" encoding="UTF-8"?>
<svg width="30" height="30" version="1.1" viewBox="0 0 30 30" xmlns="http://www.w3.org/2000/svg">
 <path d="m14.324 2.087-7.5214 8.2756c-0.1974 0.21258-0.30369 0.49603-0.30369 0.78454 0 0.64787 0.52134 1.1692 1.1692 1.1692h1.2603l-3.7152 3.7152c-0.21258 0.21258-0.33406 0.50615-0.33406 0.80984 0 0.63269 0.51121 1.1439 1.1439 1.1439h1.6905l-3.7759 4.5301c-0.17715 0.21258-0.27332 0.48084-0.27332 0.75923 0 0.658 0.53146 1.1895 1.1895 1.1895h8.5287v1.6197c0 0.89589 0.7238 1.6197 1.6197 1.6197 0.89589 0 1.6197-0.7238 1.6197-1.6197v-1.6197h8.5287c0.658 0 1.1895-0.53146 1.1895-1.1895 0-0.27838-0.09617-0.54664-0.27332-0.75923l-3.7759-4.5301h1.6905c0.63269 0 1.1439-0.51121 1.1439-1.1439 0-0.30369-0.12148-0.59726-0.33406-0.80984l-3.7152-3.7152h1.2603c0.64281 0 1.1692-0.52134 1.1692-1.1692 0-0.28851-0.10629-0.57195-0.30369-0.78454l-7.5214-8.2756c-0.17209-0.19234-0.42011-0.29863-0.67824-0.29863-0.25814 0-0.50615 0.10629-0.67824 0.29863z" stroke-width=".050615"/>
</svg>
