<?xml version="1.0" ?><!-- Uploaded to: SVG Repo, www.svgrepo.com, Generator: SVG Repo Mixer Tools -->
<svg width="800px" height="800px" viewBox="0 0 64 64" data-name="Layer 1" id="Layer_1" xmlns="http://www.w3.org/2000/svg"><defs><style>.cls-1{fill:#231f20;}</style></defs><title/><path class="cls-1" d="M32,52.78A20.29,20.29,0,1,1,52.29,32.49,20.31,20.31,0,0,1,32,52.78ZM32,14.2A18.29,18.29,0,1,0,50.29,32.49,18.32,18.32,0,0,0,32,14.2Z"/><path class="cls-1" d="M32,17.92a1,1,0,0,1-1-1V10.28a1,1,0,0,1,2,0v6.64A1,1,0,0,1,32,17.92Z"/><path class="cls-1" d="M32,54.72a1,1,0,0,1-1-1V47.08a1,1,0,0,1,2,0v6.64A1,1,0,0,1,32,54.72Z"/><path class="cls-1" d="M54.07,33.49H47.43a1,1,0,0,1,0-2h6.64a1,1,0,0,1,0,2Z"/><path class="cls-1" d="M16.39,32.79H9.75a1,1,0,0,1,0-2h6.64a1,1,0,0,1,0,2Z"/><path class="cls-1" d="M32,35.34a2.85,2.85,0,1,1,2.85-2.85A2.86,2.86,0,0,1,32,35.34Zm0-3.7a.85.85,0,1,0,.85.85A.85.85,0,0,0,32,31.64Z"/></svg>