<?xml version="1.0" encoding="UTF-8" standalone="no"?>
<!-- Created with Inkscape (http://www.inkscape.org/) -->

<svg
   width="50mm"
   height="70mm"
   viewBox="0 0 50 70"
   version="1.1"
   id="svg5"
   xml:space="preserve"
   sodipodi:docname="app-qr-code.svg"
   inkscape:version="1.2.2 (b0a8486541, 2022-12-01)"
   xmlns:inkscape="http://www.inkscape.org/namespaces/inkscape"
   xmlns:sodipodi="http://sodipodi.sourceforge.net/DTD/sodipodi-0.dtd"
   xmlns="http://www.w3.org/2000/svg"
   xmlns:svg="http://www.w3.org/2000/svg"><sodipodi:namedview
     id="namedview329"
     pagecolor="#ffffff"
     bordercolor="#666666"
     borderopacity="1.0"
     inkscape:showpageshadow="2"
     inkscape:pageopacity="0.0"
     inkscape:pagecheckerboard="true"
     inkscape:deskcolor="#d1d1d1"
     inkscape:document-units="mm"
     showgrid="false"
     inkscape:zoom="3.239256"
     inkscape:cx="94.466138"
     inkscape:cy="132.59218"
     inkscape:window-width="2048"
     inkscape:window-height="1115"
     inkscape:window-x="0"
     inkscape:window-y="0"
     inkscape:window-maximized="1"
     inkscape:current-layer="svg5" /><defs
     id="defs2" /><rect
     x="0"
     y="-7.1054274e-15"
     width="50"
     height="70"
     fill="#ffffff"
     id="rect1030"
     style="stroke-width:1.79275" /><g
     id="Pattern"
     transform="matrix(1.5151515,0,0,1.5151515,6.060606,16.257935)"><rect
       x="0"
       y="0"
       width="1"
       height="1"
       fill="#000000"
       id="rect1032" /><rect
       x="1"
       y="0"
       width="1"
       height="1"
       fill="#000000"
       id="rect1034" /><rect
       x="2"
       y="0"
       width="1"
       height="1"
       fill="#000000"
       id="rect1036" /><rect
       x="3"
       y="0"
       width="1"
       height="1"
       fill="#000000"
       id="rect1038" /><rect
       x="4"
       y="0"
       width="1"
       height="1"
       fill="#000000"
       id="rect1040" /><rect
       x="5"
       y="0"
       width="1"
       height="1"
       fill="#000000"
       id="rect1042" /><rect
       x="6"
       y="0"
       width="1"
       height="1"
       fill="#000000"
       id="rect1044" /><rect
       x="10"
       y="0"
       width="1"
       height="1"
       fill="#000000"
       id="rect1046" /><rect
       x="11"
       y="0"
       width="1"
       height="1"
       fill="#000000"
       id="rect1048" /><rect
       x="12"
       y="0"
       width="1"
       height="1"
       fill="#000000"
       id="rect1050" /><rect
       x="13"
       y="0"
       width="1"
       height="1"
       fill="#000000"
       id="rect1052" /><rect
       x="18"
       y="0"
       width="1"
       height="1"
       fill="#000000"
       id="rect1054" /><rect
       x="19"
       y="0"
       width="1"
       height="1"
       fill="#000000"
       id="rect1056" /><rect
       x="20"
       y="0"
       width="1"
       height="1"
       fill="#000000"
       id="rect1058" /><rect
       x="21"
       y="0"
       width="1"
       height="1"
       fill="#000000"
       id="rect1060" /><rect
       x="22"
       y="0"
       width="1"
       height="1"
       fill="#000000"
       id="rect1062" /><rect
       x="23"
       y="0"
       width="1"
       height="1"
       fill="#000000"
       id="rect1064" /><rect
       x="24"
       y="0"
       width="1"
       height="1"
       fill="#000000"
       id="rect1066" /><rect
       x="0"
       y="1"
       width="1"
       height="1"
       fill="#000000"
       id="rect1068" /><rect
       x="6"
       y="1"
       width="1"
       height="1"
       fill="#000000"
       id="rect1070" /><rect
       x="9"
       y="1"
       width="1"
       height="1"
       fill="#000000"
       id="rect1072" /><rect
       x="10"
       y="1"
       width="1"
       height="1"
       fill="#000000"
       id="rect1074" /><rect
       x="13"
       y="1"
       width="1"
       height="1"
       fill="#000000"
       id="rect1076" /><rect
       x="18"
       y="1"
       width="1"
       height="1"
       fill="#000000"
       id="rect1078" /><rect
       x="24"
       y="1"
       width="1"
       height="1"
       fill="#000000"
       id="rect1080" /><rect
       x="0"
       y="2"
       width="1"
       height="1"
       fill="#000000"
       id="rect1082" /><rect
       x="2"
       y="2"
       width="1"
       height="1"
       fill="#000000"
       id="rect1084" /><rect
       x="3"
       y="2"
       width="1"
       height="1"
       fill="#000000"
       id="rect1086" /><rect
       x="4"
       y="2"
       width="1"
       height="1"
       fill="#000000"
       id="rect1088" /><rect
       x="6"
       y="2"
       width="1"
       height="1"
       fill="#000000"
       id="rect1090" /><rect
       x="11"
       y="2"
       width="1"
       height="1"
       fill="#000000"
       id="rect1092" /><rect
       x="15"
       y="2"
       width="1"
       height="1"
       fill="#000000"
       id="rect1094" /><rect
       x="16"
       y="2"
       width="1"
       height="1"
       fill="#000000"
       id="rect1096" /><rect
       x="18"
       y="2"
       width="1"
       height="1"
       fill="#000000"
       id="rect1098" /><rect
       x="20"
       y="2"
       width="1"
       height="1"
       fill="#000000"
       id="rect1100" /><rect
       x="21"
       y="2"
       width="1"
       height="1"
       fill="#000000"
       id="rect1102" /><rect
       x="22"
       y="2"
       width="1"
       height="1"
       fill="#000000"
       id="rect1104" /><rect
       x="24"
       y="2"
       width="1"
       height="1"
       fill="#000000"
       id="rect1106" /><rect
       x="0"
       y="3"
       width="1"
       height="1"
       fill="#000000"
       id="rect1108" /><rect
       x="2"
       y="3"
       width="1"
       height="1"
       fill="#000000"
       id="rect1110" /><rect
       x="3"
       y="3"
       width="1"
       height="1"
       fill="#000000"
       id="rect1112" /><rect
       x="4"
       y="3"
       width="1"
       height="1"
       fill="#000000"
       id="rect1114" /><rect
       x="6"
       y="3"
       width="1"
       height="1"
       fill="#000000"
       id="rect1116" /><rect
       x="8"
       y="3"
       width="1"
       height="1"
       fill="#000000"
       id="rect1118" /><rect
       x="11"
       y="3"
       width="1"
       height="1"
       fill="#000000"
       id="rect1120" /><rect
       x="12"
       y="3"
       width="1"
       height="1"
       fill="#000000"
       id="rect1122" /><rect
       x="13"
       y="3"
       width="1"
       height="1"
       fill="#000000"
       id="rect1124" /><rect
       x="18"
       y="3"
       width="1"
       height="1"
       fill="#000000"
       id="rect1126" /><rect
       x="20"
       y="3"
       width="1"
       height="1"
       fill="#000000"
       id="rect1128" /><rect
       x="21"
       y="3"
       width="1"
       height="1"
       fill="#000000"
       id="rect1130" /><rect
       x="22"
       y="3"
       width="1"
       height="1"
       fill="#000000"
       id="rect1132" /><rect
       x="24"
       y="3"
       width="1"
       height="1"
       fill="#000000"
       id="rect1134" /><rect
       x="0"
       y="4"
       width="1"
       height="1"
       fill="#000000"
       id="rect1136" /><rect
       x="2"
       y="4"
       width="1"
       height="1"
       fill="#000000"
       id="rect1138" /><rect
       x="3"
       y="4"
       width="1"
       height="1"
       fill="#000000"
       id="rect1140" /><rect
       x="4"
       y="4"
       width="1"
       height="1"
       fill="#000000"
       id="rect1142" /><rect
       x="6"
       y="4"
       width="1"
       height="1"
       fill="#000000"
       id="rect1144" /><rect
       x="8"
       y="4"
       width="1"
       height="1"
       fill="#000000"
       id="rect1146" /><rect
       x="9"
       y="4"
       width="1"
       height="1"
       fill="#000000"
       id="rect1148" /><rect
       x="11"
       y="4"
       width="1"
       height="1"
       fill="#000000"
       id="rect1150" /><rect
       x="12"
       y="4"
       width="1"
       height="1"
       fill="#000000"
       id="rect1152" /><rect
       x="16"
       y="4"
       width="1"
       height="1"
       fill="#000000"
       id="rect1154" /><rect
       x="18"
       y="4"
       width="1"
       height="1"
       fill="#000000"
       id="rect1156" /><rect
       x="20"
       y="4"
       width="1"
       height="1"
       fill="#000000"
       id="rect1158" /><rect
       x="21"
       y="4"
       width="1"
       height="1"
       fill="#000000"
       id="rect1160" /><rect
       x="22"
       y="4"
       width="1"
       height="1"
       fill="#000000"
       id="rect1162" /><rect
       x="24"
       y="4"
       width="1"
       height="1"
       fill="#000000"
       id="rect1164" /><rect
       x="0"
       y="5"
       width="1"
       height="1"
       fill="#000000"
       id="rect1166" /><rect
       x="6"
       y="5"
       width="1"
       height="1"
       fill="#000000"
       id="rect1168" /><rect
       x="12"
       y="5"
       width="1"
       height="1"
       fill="#000000"
       id="rect1170" /><rect
       x="14"
       y="5"
       width="1"
       height="1"
       fill="#000000"
       id="rect1172" /><rect
       x="18"
       y="5"
       width="1"
       height="1"
       fill="#000000"
       id="rect1174" /><rect
       x="24"
       y="5"
       width="1"
       height="1"
       fill="#000000"
       id="rect1176" /><rect
       x="0"
       y="6"
       width="1"
       height="1"
       fill="#000000"
       id="rect1178" /><rect
       x="1"
       y="6"
       width="1"
       height="1"
       fill="#000000"
       id="rect1180" /><rect
       x="2"
       y="6"
       width="1"
       height="1"
       fill="#000000"
       id="rect1182" /><rect
       x="3"
       y="6"
       width="1"
       height="1"
       fill="#000000"
       id="rect1184" /><rect
       x="4"
       y="6"
       width="1"
       height="1"
       fill="#000000"
       id="rect1186" /><rect
       x="5"
       y="6"
       width="1"
       height="1"
       fill="#000000"
       id="rect1188" /><rect
       x="6"
       y="6"
       width="1"
       height="1"
       fill="#000000"
       id="rect1190" /><rect
       x="8"
       y="6"
       width="1"
       height="1"
       fill="#000000"
       id="rect1192" /><rect
       x="10"
       y="6"
       width="1"
       height="1"
       fill="#000000"
       id="rect1194" /><rect
       x="12"
       y="6"
       width="1"
       height="1"
       fill="#000000"
       id="rect1196" /><rect
       x="14"
       y="6"
       width="1"
       height="1"
       fill="#000000"
       id="rect1198" /><rect
       x="16"
       y="6"
       width="1"
       height="1"
       fill="#000000"
       id="rect1200" /><rect
       x="18"
       y="6"
       width="1"
       height="1"
       fill="#000000"
       id="rect1202" /><rect
       x="19"
       y="6"
       width="1"
       height="1"
       fill="#000000"
       id="rect1204" /><rect
       x="20"
       y="6"
       width="1"
       height="1"
       fill="#000000"
       id="rect1206" /><rect
       x="21"
       y="6"
       width="1"
       height="1"
       fill="#000000"
       id="rect1208" /><rect
       x="22"
       y="6"
       width="1"
       height="1"
       fill="#000000"
       id="rect1210" /><rect
       x="23"
       y="6"
       width="1"
       height="1"
       fill="#000000"
       id="rect1212" /><rect
       x="24"
       y="6"
       width="1"
       height="1"
       fill="#000000"
       id="rect1214" /><rect
       x="10"
       y="7"
       width="1"
       height="1"
       fill="#000000"
       id="rect1216" /><rect
       x="12"
       y="7"
       width="1"
       height="1"
       fill="#000000"
       id="rect1218" /><rect
       x="14"
       y="7"
       width="1"
       height="1"
       fill="#000000"
       id="rect1220" /><rect
       x="15"
       y="7"
       width="1"
       height="1"
       fill="#000000"
       id="rect1222" /><rect
       x="16"
       y="7"
       width="1"
       height="1"
       fill="#000000"
       id="rect1224" /><rect
       x="0"
       y="8"
       width="1"
       height="1"
       fill="#000000"
       id="rect1226" /><rect
       x="1"
       y="8"
       width="1"
       height="1"
       fill="#000000"
       id="rect1228" /><rect
       x="5"
       y="8"
       width="1"
       height="1"
       fill="#000000"
       id="rect1230" /><rect
       x="6"
       y="8"
       width="1"
       height="1"
       fill="#000000"
       id="rect1232" /><rect
       x="7"
       y="8"
       width="1"
       height="1"
       fill="#000000"
       id="rect1234" /><rect
       x="9"
       y="8"
       width="1"
       height="1"
       fill="#000000"
       id="rect1236" /><rect
       x="13"
       y="8"
       width="1"
       height="1"
       fill="#000000"
       id="rect1238" /><rect
       x="14"
       y="8"
       width="1"
       height="1"
       fill="#000000"
       id="rect1240" /><rect
       x="20"
       y="8"
       width="1"
       height="1"
       fill="#000000"
       id="rect1242" /><rect
       x="21"
       y="8"
       width="1"
       height="1"
       fill="#000000"
       id="rect1244" /><rect
       x="1"
       y="9"
       width="1"
       height="1"
       fill="#000000"
       id="rect1246" /><rect
       x="2"
       y="9"
       width="1"
       height="1"
       fill="#000000"
       id="rect1248" /><rect
       x="4"
       y="9"
       width="1"
       height="1"
       fill="#000000"
       id="rect1250" /><rect
       x="7"
       y="9"
       width="1"
       height="1"
       fill="#000000"
       id="rect1252" /><rect
       x="8"
       y="9"
       width="1"
       height="1"
       fill="#000000"
       id="rect1254" /><rect
       x="9"
       y="9"
       width="1"
       height="1"
       fill="#000000"
       id="rect1256" /><rect
       x="11"
       y="9"
       width="1"
       height="1"
       fill="#000000"
       id="rect1258" /><rect
       x="14"
       y="9"
       width="1"
       height="1"
       fill="#000000"
       id="rect1260" /><rect
       x="15"
       y="9"
       width="1"
       height="1"
       fill="#000000"
       id="rect1262" /><rect
       x="16"
       y="9"
       width="1"
       height="1"
       fill="#000000"
       id="rect1264" /><rect
       x="19"
       y="9"
       width="1"
       height="1"
       fill="#000000"
       id="rect1266" /><rect
       x="20"
       y="9"
       width="1"
       height="1"
       fill="#000000"
       id="rect1268" /><rect
       x="21"
       y="9"
       width="1"
       height="1"
       fill="#000000"
       id="rect1270" /><rect
       x="22"
       y="9"
       width="1"
       height="1"
       fill="#000000"
       id="rect1272" /><rect
       x="23"
       y="9"
       width="1"
       height="1"
       fill="#000000"
       id="rect1274" /><rect
       x="1"
       y="10"
       width="1"
       height="1"
       fill="#000000"
       id="rect1276" /><rect
       x="2"
       y="10"
       width="1"
       height="1"
       fill="#000000"
       id="rect1278" /><rect
       x="3"
       y="10"
       width="1"
       height="1"
       fill="#000000"
       id="rect1280" /><rect
       x="5"
       y="10"
       width="1"
       height="1"
       fill="#000000"
       id="rect1282" /><rect
       x="6"
       y="10"
       width="1"
       height="1"
       fill="#000000"
       id="rect1284" /><rect
       x="7"
       y="10"
       width="1"
       height="1"
       fill="#000000"
       id="rect1286" /><rect
       x="10"
       y="10"
       width="1"
       height="1"
       fill="#000000"
       id="rect1288" /><rect
       x="12"
       y="10"
       width="1"
       height="1"
       fill="#000000"
       id="rect1290" /><rect
       x="14"
       y="10"
       width="1"
       height="1"
       fill="#000000"
       id="rect1292" /><rect
       x="15"
       y="10"
       width="1"
       height="1"
       fill="#000000"
       id="rect1294" /><rect
       x="17"
       y="10"
       width="1"
       height="1"
       fill="#000000"
       id="rect1296" /><rect
       x="18"
       y="10"
       width="1"
       height="1"
       fill="#000000"
       id="rect1298" /><rect
       x="19"
       y="10"
       width="1"
       height="1"
       fill="#000000"
       id="rect1300" /><rect
       x="21"
       y="10"
       width="1"
       height="1"
       fill="#000000"
       id="rect1302" /><rect
       x="23"
       y="10"
       width="1"
       height="1"
       fill="#000000"
       id="rect1304" /><rect
       x="24"
       y="10"
       width="1"
       height="1"
       fill="#000000"
       id="rect1306" /><rect
       x="1"
       y="11"
       width="1"
       height="1"
       fill="#000000"
       id="rect1308" /><rect
       x="2"
       y="11"
       width="1"
       height="1"
       fill="#000000"
       id="rect1310" /><rect
       x="5"
       y="11"
       width="1"
       height="1"
       fill="#000000"
       id="rect1312" /><rect
       x="7"
       y="11"
       width="1"
       height="1"
       fill="#000000"
       id="rect1314" /><rect
       x="9"
       y="11"
       width="1"
       height="1"
       fill="#000000"
       id="rect1316" /><rect
       x="12"
       y="11"
       width="1"
       height="1"
       fill="#000000"
       id="rect1318" /><rect
       x="14"
       y="11"
       width="1"
       height="1"
       fill="#000000"
       id="rect1320" /><rect
       x="15"
       y="11"
       width="1"
       height="1"
       fill="#000000"
       id="rect1322" /><rect
       x="16"
       y="11"
       width="1"
       height="1"
       fill="#000000"
       id="rect1324" /><rect
       x="17"
       y="11"
       width="1"
       height="1"
       fill="#000000"
       id="rect1326" /><rect
       x="18"
       y="11"
       width="1"
       height="1"
       fill="#000000"
       id="rect1328" /><rect
       x="20"
       y="11"
       width="1"
       height="1"
       fill="#000000"
       id="rect1330" /><rect
       x="21"
       y="11"
       width="1"
       height="1"
       fill="#000000"
       id="rect1332" /><rect
       x="24"
       y="11"
       width="1"
       height="1"
       fill="#000000"
       id="rect1334" /><rect
       x="1"
       y="12"
       width="1"
       height="1"
       fill="#000000"
       id="rect1336" /><rect
       x="2"
       y="12"
       width="1"
       height="1"
       fill="#000000"
       id="rect1338" /><rect
       x="3"
       y="12"
       width="1"
       height="1"
       fill="#000000"
       id="rect1340" /><rect
       x="6"
       y="12"
       width="1"
       height="1"
       fill="#000000"
       id="rect1342" /><rect
       x="7"
       y="12"
       width="1"
       height="1"
       fill="#000000"
       id="rect1344" /><rect
       x="8"
       y="12"
       width="1"
       height="1"
       fill="#000000"
       id="rect1346" /><rect
       x="9"
       y="12"
       width="1"
       height="1"
       fill="#000000"
       id="rect1348" /><rect
       x="11"
       y="12"
       width="1"
       height="1"
       fill="#000000"
       id="rect1350" /><rect
       x="16"
       y="12"
       width="1"
       height="1"
       fill="#000000"
       id="rect1352" /><rect
       x="18"
       y="12"
       width="1"
       height="1"
       fill="#000000"
       id="rect1354" /><rect
       x="24"
       y="12"
       width="1"
       height="1"
       fill="#000000"
       id="rect1356" /><rect
       x="0"
       y="13"
       width="1"
       height="1"
       fill="#000000"
       id="rect1358" /><rect
       x="2"
       y="13"
       width="1"
       height="1"
       fill="#000000"
       id="rect1360" /><rect
       x="3"
       y="13"
       width="1"
       height="1"
       fill="#000000"
       id="rect1362" /><rect
       x="4"
       y="13"
       width="1"
       height="1"
       fill="#000000"
       id="rect1364" /><rect
       x="5"
       y="13"
       width="1"
       height="1"
       fill="#000000"
       id="rect1366" /><rect
       x="8"
       y="13"
       width="1"
       height="1"
       fill="#000000"
       id="rect1368" /><rect
       x="9"
       y="13"
       width="1"
       height="1"
       fill="#000000"
       id="rect1370" /><rect
       x="11"
       y="13"
       width="1"
       height="1"
       fill="#000000"
       id="rect1372" /><rect
       x="13"
       y="13"
       width="1"
       height="1"
       fill="#000000"
       id="rect1374" /><rect
       x="15"
       y="13"
       width="1"
       height="1"
       fill="#000000"
       id="rect1376" /><rect
       x="16"
       y="13"
       width="1"
       height="1"
       fill="#000000"
       id="rect1378" /><rect
       x="17"
       y="13"
       width="1"
       height="1"
       fill="#000000"
       id="rect1380" /><rect
       x="19"
       y="13"
       width="1"
       height="1"
       fill="#000000"
       id="rect1382" /><rect
       x="23"
       y="13"
       width="1"
       height="1"
       fill="#000000"
       id="rect1384" /><rect
       x="0"
       y="14"
       width="1"
       height="1"
       fill="#000000"
       id="rect1386" /><rect
       x="2"
       y="14"
       width="1"
       height="1"
       fill="#000000"
       id="rect1388" /><rect
       x="3"
       y="14"
       width="1"
       height="1"
       fill="#000000"
       id="rect1390" /><rect
       x="5"
       y="14"
       width="1"
       height="1"
       fill="#000000"
       id="rect1392" /><rect
       x="6"
       y="14"
       width="1"
       height="1"
       fill="#000000"
       id="rect1394" /><rect
       x="7"
       y="14"
       width="1"
       height="1"
       fill="#000000"
       id="rect1396" /><rect
       x="9"
       y="14"
       width="1"
       height="1"
       fill="#000000"
       id="rect1398" /><rect
       x="14"
       y="14"
       width="1"
       height="1"
       fill="#000000"
       id="rect1400" /><rect
       x="15"
       y="14"
       width="1"
       height="1"
       fill="#000000"
       id="rect1402" /><rect
       x="16"
       y="14"
       width="1"
       height="1"
       fill="#000000"
       id="rect1404" /><rect
       x="18"
       y="14"
       width="1"
       height="1"
       fill="#000000"
       id="rect1406" /><rect
       x="19"
       y="14"
       width="1"
       height="1"
       fill="#000000"
       id="rect1408" /><rect
       x="20"
       y="14"
       width="1"
       height="1"
       fill="#000000"
       id="rect1410" /><rect
       x="21"
       y="14"
       width="1"
       height="1"
       fill="#000000"
       id="rect1412" /><rect
       x="23"
       y="14"
       width="1"
       height="1"
       fill="#000000"
       id="rect1414" /><rect
       x="24"
       y="14"
       width="1"
       height="1"
       fill="#000000"
       id="rect1416" /><rect
       x="0"
       y="15"
       width="1"
       height="1"
       fill="#000000"
       id="rect1418" /><rect
       x="5"
       y="15"
       width="1"
       height="1"
       fill="#000000"
       id="rect1420" /><rect
       x="9"
       y="15"
       width="1"
       height="1"
       fill="#000000"
       id="rect1422" /><rect
       x="10"
       y="15"
       width="1"
       height="1"
       fill="#000000"
       id="rect1424" /><rect
       x="12"
       y="15"
       width="1"
       height="1"
       fill="#000000"
       id="rect1426" /><rect
       x="16"
       y="15"
       width="1"
       height="1"
       fill="#000000"
       id="rect1428" /><rect
       x="19"
       y="15"
       width="1"
       height="1"
       fill="#000000"
       id="rect1430" /><rect
       x="21"
       y="15"
       width="1"
       height="1"
       fill="#000000"
       id="rect1432" /><rect
       x="22"
       y="15"
       width="1"
       height="1"
       fill="#000000"
       id="rect1434" /><rect
       x="24"
       y="15"
       width="1"
       height="1"
       fill="#000000"
       id="rect1436" /><rect
       x="0"
       y="16"
       width="1"
       height="1"
       fill="#000000"
       id="rect1438" /><rect
       x="5"
       y="16"
       width="1"
       height="1"
       fill="#000000"
       id="rect1440" /><rect
       x="6"
       y="16"
       width="1"
       height="1"
       fill="#000000"
       id="rect1442" /><rect
       x="7"
       y="16"
       width="1"
       height="1"
       fill="#000000"
       id="rect1444" /><rect
       x="8"
       y="16"
       width="1"
       height="1"
       fill="#000000"
       id="rect1446" /><rect
       x="9"
       y="16"
       width="1"
       height="1"
       fill="#000000"
       id="rect1448" /><rect
       x="12"
       y="16"
       width="1"
       height="1"
       fill="#000000"
       id="rect1450" /><rect
       x="13"
       y="16"
       width="1"
       height="1"
       fill="#000000"
       id="rect1452" /><rect
       x="14"
       y="16"
       width="1"
       height="1"
       fill="#000000"
       id="rect1454" /><rect
       x="15"
       y="16"
       width="1"
       height="1"
       fill="#000000"
       id="rect1456" /><rect
       x="16"
       y="16"
       width="1"
       height="1"
       fill="#000000"
       id="rect1458" /><rect
       x="17"
       y="16"
       width="1"
       height="1"
       fill="#000000"
       id="rect1460" /><rect
       x="18"
       y="16"
       width="1"
       height="1"
       fill="#000000"
       id="rect1462" /><rect
       x="19"
       y="16"
       width="1"
       height="1"
       fill="#000000"
       id="rect1464" /><rect
       x="20"
       y="16"
       width="1"
       height="1"
       fill="#000000"
       id="rect1466" /><rect
       x="22"
       y="16"
       width="1"
       height="1"
       fill="#000000"
       id="rect1468" /><rect
       x="8"
       y="17"
       width="1"
       height="1"
       fill="#000000"
       id="rect1470" /><rect
       x="9"
       y="17"
       width="1"
       height="1"
       fill="#000000"
       id="rect1472" /><rect
       x="10"
       y="17"
       width="1"
       height="1"
       fill="#000000"
       id="rect1474" /><rect
       x="11"
       y="17"
       width="1"
       height="1"
       fill="#000000"
       id="rect1476" /><rect
       x="16"
       y="17"
       width="1"
       height="1"
       fill="#000000"
       id="rect1478" /><rect
       x="20"
       y="17"
       width="1"
       height="1"
       fill="#000000"
       id="rect1480" /><rect
       x="0"
       y="18"
       width="1"
       height="1"
       fill="#000000"
       id="rect1482" /><rect
       x="1"
       y="18"
       width="1"
       height="1"
       fill="#000000"
       id="rect1484" /><rect
       x="2"
       y="18"
       width="1"
       height="1"
       fill="#000000"
       id="rect1486" /><rect
       x="3"
       y="18"
       width="1"
       height="1"
       fill="#000000"
       id="rect1488" /><rect
       x="4"
       y="18"
       width="1"
       height="1"
       fill="#000000"
       id="rect1490" /><rect
       x="5"
       y="18"
       width="1"
       height="1"
       fill="#000000"
       id="rect1492" /><rect
       x="6"
       y="18"
       width="1"
       height="1"
       fill="#000000"
       id="rect1494" /><rect
       x="8"
       y="18"
       width="1"
       height="1"
       fill="#000000"
       id="rect1496" /><rect
       x="9"
       y="18"
       width="1"
       height="1"
       fill="#000000"
       id="rect1498" /><rect
       x="11"
       y="18"
       width="1"
       height="1"
       fill="#000000"
       id="rect1500" /><rect
       x="12"
       y="18"
       width="1"
       height="1"
       fill="#000000"
       id="rect1502" /><rect
       x="13"
       y="18"
       width="1"
       height="1"
       fill="#000000"
       id="rect1504" /><rect
       x="14"
       y="18"
       width="1"
       height="1"
       fill="#000000"
       id="rect1506" /><rect
       x="16"
       y="18"
       width="1"
       height="1"
       fill="#000000"
       id="rect1508" /><rect
       x="18"
       y="18"
       width="1"
       height="1"
       fill="#000000"
       id="rect1510" /><rect
       x="20"
       y="18"
       width="1"
       height="1"
       fill="#000000"
       id="rect1512" /><rect
       x="24"
       y="18"
       width="1"
       height="1"
       fill="#000000"
       id="rect1514" /><rect
       x="0"
       y="19"
       width="1"
       height="1"
       fill="#000000"
       id="rect1516" /><rect
       x="6"
       y="19"
       width="1"
       height="1"
       fill="#000000"
       id="rect1518" /><rect
       x="8"
       y="19"
       width="1"
       height="1"
       fill="#000000"
       id="rect1520" /><rect
       x="10"
       y="19"
       width="1"
       height="1"
       fill="#000000"
       id="rect1522" /><rect
       x="11"
       y="19"
       width="1"
       height="1"
       fill="#000000"
       id="rect1524" /><rect
       x="14"
       y="19"
       width="1"
       height="1"
       fill="#000000"
       id="rect1526" /><rect
       x="15"
       y="19"
       width="1"
       height="1"
       fill="#000000"
       id="rect1528" /><rect
       x="16"
       y="19"
       width="1"
       height="1"
       fill="#000000"
       id="rect1530" /><rect
       x="20"
       y="19"
       width="1"
       height="1"
       fill="#000000"
       id="rect1532" /><rect
       x="23"
       y="19"
       width="1"
       height="1"
       fill="#000000"
       id="rect1534" /><rect
       x="24"
       y="19"
       width="1"
       height="1"
       fill="#000000"
       id="rect1536" /><rect
       x="0"
       y="20"
       width="1"
       height="1"
       fill="#000000"
       id="rect1538" /><rect
       x="2"
       y="20"
       width="1"
       height="1"
       fill="#000000"
       id="rect1540" /><rect
       x="3"
       y="20"
       width="1"
       height="1"
       fill="#000000"
       id="rect1542" /><rect
       x="4"
       y="20"
       width="1"
       height="1"
       fill="#000000"
       id="rect1544" /><rect
       x="6"
       y="20"
       width="1"
       height="1"
       fill="#000000"
       id="rect1546" /><rect
       x="11"
       y="20"
       width="1"
       height="1"
       fill="#000000"
       id="rect1548" /><rect
       x="12"
       y="20"
       width="1"
       height="1"
       fill="#000000"
       id="rect1550" /><rect
       x="13"
       y="20"
       width="1"
       height="1"
       fill="#000000"
       id="rect1552" /><rect
       x="14"
       y="20"
       width="1"
       height="1"
       fill="#000000"
       id="rect1554" /><rect
       x="15"
       y="20"
       width="1"
       height="1"
       fill="#000000"
       id="rect1556" /><rect
       x="16"
       y="20"
       width="1"
       height="1"
       fill="#000000"
       id="rect1558" /><rect
       x="17"
       y="20"
       width="1"
       height="1"
       fill="#000000"
       id="rect1560" /><rect
       x="18"
       y="20"
       width="1"
       height="1"
       fill="#000000"
       id="rect1562" /><rect
       x="19"
       y="20"
       width="1"
       height="1"
       fill="#000000"
       id="rect1564" /><rect
       x="20"
       y="20"
       width="1"
       height="1"
       fill="#000000"
       id="rect1566" /><rect
       x="22"
       y="20"
       width="1"
       height="1"
       fill="#000000"
       id="rect1568" /><rect
       x="23"
       y="20"
       width="1"
       height="1"
       fill="#000000"
       id="rect1570" /><rect
       x="0"
       y="21"
       width="1"
       height="1"
       fill="#000000"
       id="rect1572" /><rect
       x="2"
       y="21"
       width="1"
       height="1"
       fill="#000000"
       id="rect1574" /><rect
       x="3"
       y="21"
       width="1"
       height="1"
       fill="#000000"
       id="rect1576" /><rect
       x="4"
       y="21"
       width="1"
       height="1"
       fill="#000000"
       id="rect1578" /><rect
       x="6"
       y="21"
       width="1"
       height="1"
       fill="#000000"
       id="rect1580" /><rect
       x="11"
       y="21"
       width="1"
       height="1"
       fill="#000000"
       id="rect1582" /><rect
       x="12"
       y="21"
       width="1"
       height="1"
       fill="#000000"
       id="rect1584" /><rect
       x="17"
       y="21"
       width="1"
       height="1"
       fill="#000000"
       id="rect1586" /><rect
       x="18"
       y="21"
       width="1"
       height="1"
       fill="#000000"
       id="rect1588" /><rect
       x="23"
       y="21"
       width="1"
       height="1"
       fill="#000000"
       id="rect1590" /><rect
       x="24"
       y="21"
       width="1"
       height="1"
       fill="#000000"
       id="rect1592" /><rect
       x="0"
       y="22"
       width="1"
       height="1"
       fill="#000000"
       id="rect1594" /><rect
       x="2"
       y="22"
       width="1"
       height="1"
       fill="#000000"
       id="rect1596" /><rect
       x="3"
       y="22"
       width="1"
       height="1"
       fill="#000000"
       id="rect1598" /><rect
       x="4"
       y="22"
       width="1"
       height="1"
       fill="#000000"
       id="rect1600" /><rect
       x="6"
       y="22"
       width="1"
       height="1"
       fill="#000000"
       id="rect1602" /><rect
       x="9"
       y="22"
       width="1"
       height="1"
       fill="#000000"
       id="rect1604" /><rect
       x="21"
       y="22"
       width="1"
       height="1"
       fill="#000000"
       id="rect1606" /><rect
       x="22"
       y="22"
       width="1"
       height="1"
       fill="#000000"
       id="rect1608" /><rect
       x="24"
       y="22"
       width="1"
       height="1"
       fill="#000000"
       id="rect1610" /><rect
       x="0"
       y="23"
       width="1"
       height="1"
       fill="#000000"
       id="rect1612" /><rect
       x="6"
       y="23"
       width="1"
       height="1"
       fill="#000000"
       id="rect1614" /><rect
       x="8"
       y="23"
       width="1"
       height="1"
       fill="#000000"
       id="rect1616" /><rect
       x="9"
       y="23"
       width="1"
       height="1"
       fill="#000000"
       id="rect1618" /><rect
       x="11"
       y="23"
       width="1"
       height="1"
       fill="#000000"
       id="rect1620" /><rect
       x="12"
       y="23"
       width="1"
       height="1"
       fill="#000000"
       id="rect1622" /><rect
       x="15"
       y="23"
       width="1"
       height="1"
       fill="#000000"
       id="rect1624" /><rect
       x="16"
       y="23"
       width="1"
       height="1"
       fill="#000000"
       id="rect1626" /><rect
       x="17"
       y="23"
       width="1"
       height="1"
       fill="#000000"
       id="rect1628" /><rect
       x="18"
       y="23"
       width="1"
       height="1"
       fill="#000000"
       id="rect1630" /><rect
       x="19"
       y="23"
       width="1"
       height="1"
       fill="#000000"
       id="rect1632" /><rect
       x="20"
       y="23"
       width="1"
       height="1"
       fill="#000000"
       id="rect1634" /><rect
       x="24"
       y="23"
       width="1"
       height="1"
       fill="#000000"
       id="rect1636" /><rect
       x="0"
       y="24"
       width="1"
       height="1"
       fill="#000000"
       id="rect1638" /><rect
       x="1"
       y="24"
       width="1"
       height="1"
       fill="#000000"
       id="rect1640" /><rect
       x="2"
       y="24"
       width="1"
       height="1"
       fill="#000000"
       id="rect1642" /><rect
       x="3"
       y="24"
       width="1"
       height="1"
       fill="#000000"
       id="rect1644" /><rect
       x="4"
       y="24"
       width="1"
       height="1"
       fill="#000000"
       id="rect1646" /><rect
       x="5"
       y="24"
       width="1"
       height="1"
       fill="#000000"
       id="rect1648" /><rect
       x="6"
       y="24"
       width="1"
       height="1"
       fill="#000000"
       id="rect1650" /><rect
       x="8"
       y="24"
       width="1"
       height="1"
       fill="#000000"
       id="rect1652" /><rect
       x="9"
       y="24"
       width="1"
       height="1"
       fill="#000000"
       id="rect1654" /><rect
       x="11"
       y="24"
       width="1"
       height="1"
       fill="#000000"
       id="rect1656" /><rect
       x="16"
       y="24"
       width="1"
       height="1"
       fill="#000000"
       id="rect1658" /><rect
       x="18"
       y="24"
       width="1"
       height="1"
       fill="#000000"
       id="rect1660" /><rect
       x="21"
       y="24"
       width="1"
       height="1"
       fill="#000000"
       id="rect1662" /><rect
       x="24"
       y="24"
       width="1"
       height="1"
       fill="#000000"
       id="rect1664" /></g><text
     xml:space="preserve"
     style="font-style:normal;font-weight:normal;font-size:5.30071px;line-height:1.25;font-family:sans-serif;fill:#000000;fill-opacity:1;stroke:none;stroke-width:0.132518"
     x="24.943878"
     y="10.924169"
     id="text2050"><tspan
       id="tspan2048"
       style="font-style:normal;font-variant:normal;font-weight:bold;font-stretch:normal;font-size:5.30071px;font-family:'Futura Now Headline';-inkscape-font-specification:'Futura Now Headline, Bold';font-variant-ligatures:normal;font-variant-caps:normal;font-variant-numeric:normal;font-variant-east-asian:normal;text-align:center;text-anchor:middle;stroke-width:0.132518"
       x="24.943878"
       y="10.924169">Trees of Yerevan</tspan></text><text
     xml:space="preserve"
     style="font-style:normal;font-weight:normal;font-size:5.30071px;line-height:1.25;font-family:sans-serif;fill:#000000;fill-opacity:1;stroke:none;stroke-width:0.132518"
     x="24.943878"
     y="63.840843"
     id="text2106"><tspan
       id="tspan2104"
       style="font-style:normal;font-variant:normal;font-weight:bold;font-stretch:normal;font-size:5.30071px;font-family:'Futura Now Headline';-inkscape-font-specification:'Futura Now Headline, Bold';font-variant-ligatures:normal;font-variant-caps:normal;font-variant-numeric:normal;font-variant-east-asian:normal;text-align:center;text-anchor:middle;stroke-width:0.132518"
       x="24.943878"
       y="63.840843">Go Mapping!</tspan></text></svg>
